<svg width="23" height="18" viewBox="0 0 23 18" fill="none" xmlns="http://www.w3.org/2000/svg">
<path d="M9.35063 1.16813C7.7276 0.393231 5.45905 0.0136409 2.42188 0.000164377C2.13544 -0.00372716 1.85463 0.0797968 1.61688 0.239598C1.42173 0.371502 1.26199 0.549338 1.1517 0.757464C1.04141 0.96559 0.983949 1.19763 0.984377 1.43317V14.2853C0.984377 15.1541 1.6025 15.8095 2.42188 15.8095C5.61448 15.8095 8.81696 16.1078 10.7351 17.9208C10.7614 17.9458 10.7943 17.9624 10.83 17.9687C10.8656 17.9751 10.9023 17.9708 10.9355 17.9564C10.9687 17.9421 10.997 17.9183 11.0168 17.888C11.0366 17.8577 11.047 17.8223 11.0469 17.7861V2.64247C11.047 2.5403 11.0251 2.4393 10.9828 2.3463C10.9405 2.2533 10.8787 2.17047 10.8016 2.10341C10.3622 1.72779 9.87416 1.41319 9.35063 1.16813ZM21.9144 0.23825C21.6765 0.0788468 21.3957 -0.00421081 21.1094 0.000164377C18.0722 0.0136409 15.8037 0.391434 14.1806 1.16813C13.6571 1.41274 13.1689 1.72672 12.7292 2.10161C12.6523 2.16879 12.5907 2.25166 12.5484 2.34463C12.5062 2.43761 12.4844 2.53855 12.4844 2.64067V17.7852C12.4844 17.82 12.4946 17.854 12.5138 17.8829C12.5331 17.9119 12.5604 17.9345 12.5925 17.948C12.6245 17.9615 12.6598 17.9652 12.694 17.9587C12.7281 17.9522 12.7596 17.9357 12.7845 17.9114C13.9376 16.7659 15.9613 15.8082 21.1112 15.8086C21.4924 15.8086 21.8581 15.6572 22.1276 15.3876C22.3972 15.118 22.5487 14.7524 22.5487 14.3711V1.43362C22.5492 1.19761 22.4916 0.965106 22.381 0.756629C22.2704 0.548153 22.1101 0.37012 21.9144 0.23825Z" fill="white"/>
</svg>
