<svg width="33" height="34" viewBox="0 0 33 34" fill="none" xmlns="http://www.w3.org/2000/svg">
<path d="M12.9862 5.51883C10.6662 4.41118 7.42349 3.86859 3.08213 3.84933C2.67269 3.84376 2.27129 3.96315 1.93145 4.19157C1.65251 4.38012 1.42417 4.63432 1.26652 4.93182C1.10887 5.22932 1.02673 5.561 1.02735 5.89768V24.2687C1.02735 25.5106 1.9109 26.4474 3.08213 26.4474C7.64566 26.4474 12.2233 26.8738 14.9652 29.4654C15.0027 29.501 15.0498 29.5248 15.1008 29.5338C15.1517 29.5429 15.2041 29.5367 15.2516 29.5162C15.2991 29.4957 15.3395 29.4617 15.3678 29.4184C15.3961 29.3751 15.411 29.3244 15.4108 29.2727V7.62627C15.4109 7.48022 15.3797 7.33585 15.3192 7.20292C15.2587 7.06999 15.1704 6.95159 15.0602 6.85572C14.4322 6.31881 13.7345 5.86912 12.9862 5.51883ZM30.9449 4.18965C30.6049 3.9618 30.2035 3.84307 29.7943 3.84933C25.4529 3.86859 22.2102 4.40861 19.8902 5.51883C19.1419 5.86848 18.4441 6.31729 17.8155 6.85316C17.7056 6.94919 17.6175 7.06763 17.5571 7.20054C17.4968 7.33344 17.4656 7.47773 17.4656 7.6237V29.2714C17.4656 29.3211 17.4802 29.3697 17.5077 29.4112C17.5352 29.4526 17.5743 29.4849 17.6201 29.5042C17.6659 29.5235 17.7164 29.5288 17.7652 29.5195C17.814 29.5102 17.859 29.4867 17.8945 29.4519C19.5428 27.8145 22.4356 26.4455 29.7968 26.4461C30.3418 26.4461 30.8644 26.2296 31.2498 25.8443C31.6351 25.4589 31.8516 24.9363 31.8516 24.3913V5.89833C31.8524 5.56097 31.77 5.22862 31.6119 4.93063C31.4538 4.63263 31.2247 4.37814 30.9449 4.18965Z" fill="#741777"/>
</svg>
